<svg xmlns="http://www.w3.org/2000/svg" xmlns:xlink="http://www.w3.org/1999/xlink" width="285.697" height="33.292" viewBox="0 0 285.697 33.292">
  <defs>
    <clipPath id="clip-path">
      <rect id="Rectangle_147098" data-name="Rectangle 147098" width="242.886" height="20.287" fill="none"/>
    </clipPath>
  </defs>
  <g id="Group_85995" data-name="Group 85995" transform="translate(-200 -23)">
    <g id="Group_80721" data-name="Group 80721" transform="translate(122.178 -30.072)">
      <g id="Group_80720" data-name="Group 80720" transform="translate(120.633 62.072)">
        <g id="Mask_Group_80719" data-name="Mask Group 80719" transform="translate(0 0)" clip-path="url(#clip-path)">
          <text id="Easy_Insurance_Assessment" data-name="Easy Insurance Assessment" transform="translate(0 13.262)" font-size="16" font-family="mplus-1p-medium, 'M\+ \31 p'" font-weight="500"><tspan x="0" y="0">Easy Insurance Assessment</tspan></text>
        </g>
      </g>
      <g id="worldwide-security-svgrepo-com" transform="translate(77.822 53.072)">
        <g id="Group_130" data-name="Group 130" transform="translate(0 0)">
          <g id="Group_129" data-name="Group 129">
            <path id="Path_3" data-name="Path 3" d="M32.812,17.695c-.878-.478-1.724-.983-2.556-1.508.02-.341.039-.675.039-1.009A15.145,15.145,0,1,0,19.788,29.6a36.959,36.959,0,0,0,5.093,3.6.905.905,0,0,0,.944,0c2.255-1.324,7.472-4.667,7.472-6.967V18.508A.927.927,0,0,0,32.812,17.695ZM10.389,2.777A14.28,14.28,0,0,0,8.278,6.788H4.844A13.33,13.33,0,0,1,10.389,2.777Zm-6.81,5.86H7.715a26.54,26.54,0,0,0-.767,5.624H1.888A13.158,13.158,0,0,1,3.579,8.637Zm0,13.089a13.1,13.1,0,0,1-1.691-5.617H6.954a26.546,26.546,0,0,0,.76,5.617Zm1.265,1.848H8.278a14.588,14.588,0,0,0,2.111,4.018A13.345,13.345,0,0,1,4.844,23.574Zm9.38,4.759c-1.573-.5-2.982-2.261-3.965-4.752h3.965Zm0-6.607H9.642A24.279,24.279,0,0,1,8.8,16.109h5.421Zm0-7.466H8.8a24.337,24.337,0,0,1,.839-5.624h4.582Zm0-7.472H10.258c.99-2.491,2.392-4.247,3.965-4.752ZM26.71,8.637a13.2,13.2,0,0,1,1.7,5.624h-1c-.485-.36-.97-.728-1.435-1.1a.918.918,0,0,0-1.16,0q-.7.56-1.435,1.1h-.033a26.669,26.669,0,0,0-.76-5.624ZM25.445,6.788H22.017A14.589,14.589,0,0,0,19.906,2.77,13.283,13.283,0,0,1,25.445,6.788ZM16.072,2.036c1.573.5,2.976,2.261,3.959,4.752H16.072V2.036Zm0,6.6h4.575a24.283,24.283,0,0,1,.839,5.624H16.072Zm0,19.69V23.581h1.409v2.648a2.288,2.288,0,0,0,.282,1.009A4.481,4.481,0,0,1,16.072,28.326Zm1.409-9.819v3.218H16.072V16.109h4.582c-.872.551-1.763,1.088-2.687,1.586A.941.941,0,0,0,17.481,18.508Zm13.968,7.721c-.033.78-2.825,3.107-6.083,5.1-3.231-2-6-4.319-6.03-5.1V19.058a47.228,47.228,0,0,0,6.056-4,47.69,47.69,0,0,0,6.056,4Z" transform="translate(0 -0.037)" fill="#0aaf98"/>
          </g>
        </g>
        <g id="Group_132" data-name="Group 132" transform="translate(21.038 19.996)">
          <g id="Group_131" data-name="Group 131">
            <path id="Path_4" data-name="Path 4" d="M329.406,305.383a.93.93,0,0,0-1.311,0l-3.723,3.723-1.816-1.816a.927.927,0,1,0-1.311,1.311l2.471,2.471a.93.93,0,0,0,1.311,0l4.378-4.378A.93.93,0,0,0,329.406,305.383Z" transform="translate(-320.975 -305.113)" fill="#0aaf98"/>
          </g>
        </g>
      </g>
    </g>
  </g>
</svg>
